<svg width="12" height="21" viewBox="0 0 12 21" fill="none" xmlns="http://www.w3.org/2000/svg">
<rect width="12" height="21" fill="#FF9C1A"/>
<g filter="url(#filter0_d_0_1)">
<rect width="1440" height="1024" transform="translate(-182 -494)" fill="#F2F5F9"/>
<g filter="url(#filter1_d_0_1)">
<rect x="-82" y="-220" width="400" height="700" rx="20" fill="white"/>
</g>
<rect x="-24" y="-20" width="60.0297" height="61.1873" rx="8.26855" fill="#F2F7FC"/>
<path d="M7.75027 12.0825H10.2308L11.2231 8.11357H7.75027V6.12912C7.75027 5.10712 7.75027 4.14467 9.73472 4.14467H11.2231V0.810787C10.8996 0.768121 9.67816 0.671875 8.38827 0.671875C5.69438 0.671875 3.78137 2.31599 3.78137 5.33534V8.11357H0.804688V12.0825H3.78137V20.5164H7.75027V12.0825Z" fill="#1877F2"/>
</g>
<defs>
<filter id="filter0_d_0_1" x="-186" y="-494" width="1448" height="1032" filterUnits="userSpaceOnUse" color-interpolation-filters="sRGB">
<feFlood flood-opacity="0" result="BackgroundImageFix"/>
<feColorMatrix in="SourceAlpha" type="matrix" values="0 0 0 0 0 0 0 0 0 0 0 0 0 0 0 0 0 0 127 0" result="hardAlpha"/>
<feOffset dy="4"/>
<feGaussianBlur stdDeviation="2"/>
<feComposite in2="hardAlpha" operator="out"/>
<feColorMatrix type="matrix" values="0 0 0 0 0 0 0 0 0 0 0 0 0 0 0 0 0 0 0.25 0"/>
<feBlend mode="normal" in2="BackgroundImageFix" result="effect1_dropShadow_0_1"/>
<feBlend mode="normal" in="SourceGraphic" in2="effect1_dropShadow_0_1" result="shape"/>
</filter>
<filter id="filter1_d_0_1" x="-82" y="-220" width="400" height="700" filterUnits="userSpaceOnUse" color-interpolation-filters="sRGB">
<feFlood flood-opacity="0" result="BackgroundImageFix"/>
<feColorMatrix in="SourceAlpha" type="matrix" values="0 0 0 0 0 0 0 0 0 0 0 0 0 0 0 0 0 0 127 0" result="hardAlpha"/>
<feOffset/>
<feComposite in2="hardAlpha" operator="out"/>
<feColorMatrix type="matrix" values="0 0 0 0 0 0 0 0 0 0 0 0 0 0 0 0 0 0 0.25 0"/>
<feBlend mode="darken" in2="BackgroundImageFix" result="effect1_dropShadow_0_1"/>
<feBlend mode="normal" in="SourceGraphic" in2="effect1_dropShadow_0_1" result="shape"/>
</filter>
</defs>
</svg>
